<svg width="205" height="242" viewBox="0 0 205 242" fill="none" xmlns="http://www.w3.org/2000/svg">
<path d="M8.59911 63.5656C35.3766 52.3493 37.1067 96.1067 44.277 108.763C48.0567 115.427 53.4855 122.302 60.9837 125.006C87.0851 134.432 127.779 82.8604 137.573 125.962C142.474 147.543 136.389 169.84 156.353 185.897C170.005 196.88 186.953 196.703 200.499 186.501C205.945 182.398 199.064 174.321 193.664 178.442C172.599 194.529 154.677 167.175 150.015 150.759C147.682 142.547 148.954 134.391 148.15 126.112C147.413 118.523 146.544 112.142 141.65 105.987C131.931 93.7584 114.659 93.0169 101.208 98.6591C97.9266 100.031 95.0641 102.33 91.89 103.867C83.3851 107.978 66.4053 113.684 56.9552 108.914C48.4365 104.618 45.8968 73.6939 39.8592 64.9433C31.5996 52.9748 18.9507 47.7884 5.48395 53.469C-0.737393 56.0885 2.3119 66.1968 8.59911 63.5656Z" fill="#49AC9B"/>
</svg>
